<?xml version="1.0" encoding="iso-8859-1"?>
<!-- Generator: Adobe Illustrator 19.0.0, SVG Export Plug-In . SVG Version: 6.00 Build 0)  -->
<svg version="1.1" id="Layer_1" xmlns="http://www.w3.org/2000/svg" xmlns:xlink="http://www.w3.org/1999/xlink" x="0px" y="0px"
	 viewBox="0 0 512 512" style="enable-background:new 0 0 512 512;" xml:space="preserve">
<g transform="translate(1 1)">
	<path style="fill:#EF5350;" d="M502.467,511H7.533C2.413,511-1,507.587-1,502.467c0-5.12,3.413-8.533,8.533-8.533h494.933
		c5.12,0,8.533,3.413,8.533,8.533C511,507.587,507.587,511,502.467,511z"/>
	<polygon style="fill:#EF5350;" points="101.4,348.867 152.6,348.867 152.6,502.467 101.4,502.467 	"/>
	<path style="fill:#EF5350;" d="M161.133,511H92.867V340.333h68.267V511z M109.933,493.933h34.133V357.4h-34.133V493.933z"/>
	<polygon style="fill:#FFFFFF;" points="16.067,306.2 67.267,306.2 67.267,502.467 16.067,502.467 	"/>
	<path style="fill:#EF5350;" d="M75.8,511H7.533V297.667H75.8V511z M24.6,493.933h34.133v-179.2H24.6V493.933z"/>
	<polygon style="fill:#FFFFFF;" points="272.067,237.933 323.267,237.933 323.267,502.467 272.067,502.467 	"/>
	<path style="fill:#EF5350;" d="M331.8,511h-68.267V229.4H331.8V511z M280.6,493.933h34.133V246.467H280.6V493.933z"/>
	<polygon style="fill:#EF5350;" points="186.733,169.667 237.933,169.667 237.933,502.467 186.733,502.467 	"/>
	<path style="fill:#EF5350;" d="M246.467,511H178.2V161.133h68.267V511z M195.267,493.933H229.4V178.2h-34.133V493.933z"/>
	<polygon style="fill:#FFFFFF;" points="442.733,383 493.933,383 493.933,502.467 442.733,502.467 	"/>
	<path style="fill:#EF5350;" d="M502.467,511H434.2V374.467h68.267V511z M451.267,493.933H485.4v-102.4h-34.133V493.933z"/>
	<polygon style="fill:#EF5350;" points="357.4,203.8 408.6,203.8 408.6,502.467 357.4,502.467 	"/>
	<g>
		<path style="fill:#EF5350;" d="M417.133,511h-68.267V195.267h68.267V511z M365.933,493.933h34.133v-281.6h-34.133V493.933z"/>
		<path style="fill:#EF5350;" d="M493.933,451.267h-51.2c-5.12,0-8.533-3.413-8.533-8.533c0-5.12,3.413-8.533,8.533-8.533h51.2
			c5.12,0,8.533,3.413,8.533,8.533C502.467,447.853,499.053,451.267,493.933,451.267z M152.6,434.2h-51.2
			c-5.12,0-8.533-3.413-8.533-8.533s3.413-8.533,8.533-8.533h51.2c5.12,0,8.533,3.413,8.533,8.533S157.72,434.2,152.6,434.2z
			 M67.267,391.533h-51.2c-5.12,0-8.533-3.413-8.533-8.533c0-5.12,3.413-8.533,8.533-8.533h51.2c5.12,0,8.533,3.413,8.533,8.533
			C75.8,388.12,72.387,391.533,67.267,391.533z M408.6,357.4h-51.2c-5.12,0-8.533-3.413-8.533-8.533c0-5.12,3.413-8.533,8.533-8.533
			h51.2c5.12,0,8.533,3.413,8.533,8.533C417.133,353.987,413.72,357.4,408.6,357.4z M323.267,323.267h-51.2
			c-5.12,0-8.533-3.413-8.533-8.533c0-5.12,3.413-8.533,8.533-8.533h51.2c5.12,0,8.533,3.413,8.533,8.533
			C331.8,319.853,328.387,323.267,323.267,323.267z M237.933,255h-51.2c-5.12,0-8.533-3.413-8.533-8.533
			c0-5.12,3.413-8.533,8.533-8.533h51.2c5.12,0,8.533,3.413,8.533,8.533C246.467,251.587,243.053,255,237.933,255z M442.733,109.933
			h-68.267c-5.12,0-8.533-3.413-8.533-8.533c0-5.12,3.413-8.533,8.533-8.533h68.267c5.12,0,8.533,3.413,8.533,8.533
			C451.267,106.52,447.853,109.933,442.733,109.933z M485.4,67.267h-25.6c-5.12,0-8.533-3.413-8.533-8.533S454.68,50.2,459.8,50.2
			h25.6c5.12,0,8.533,3.413,8.533,8.533S490.52,67.267,485.4,67.267z M391.533,67.267h-17.067c-5.12,0-8.533-3.413-8.533-8.533
			s3.413-8.533,8.533-8.533h17.067c5.12,0,8.533,3.413,8.533,8.533S396.653,67.267,391.533,67.267z M502.467,16.067H7.533
			C2.413,16.067-1,12.653-1,7.533S2.413-1,7.533-1h494.933C507.587-1,511,2.413,511,7.533S507.587,16.067,502.467,16.067z"/>
	</g>
</g>
<g>
</g>
<g>
</g>
<g>
</g>
<g>
</g>
<g>
</g>
<g>
</g>
<g>
</g>
<g>
</g>
<g>
</g>
<g>
</g>
<g>
</g>
<g>
</g>
<g>
</g>
<g>
</g>
<g>
</g>
</svg>
