<?xml version="1.0" encoding="iso-8859-1"?>
<svg xmlns="http://www.w3.org/2000/svg" xmlns:xlink="http://www.w3.org/1999/xlink" version="1.1" viewBox="0 0 463 463" enable-background="new 0 0 463 463" width="512px" height="512px">
  <g>
    <path style="fill:#EF5053;" d="m423.5,128h-384c-21.78,0-39.5,17.72-39.5,39.5v128c0,21.78 17.72,39.5 39.5,39.5h384c21.78,0 39.5-17.72 39.5-39.5v-128c0-21.78-17.72-39.5-39.5-39.5zm-408.5,167.5v-128c0-13.509 10.991-24.5 24.5-24.5h280.5v177h-280.5c-13.509,0-24.5-10.991-24.5-24.5zm433,0c0,13.509-10.991,24.5-24.5,24.5h-88.5v-177h88.5c13.509,0 24.5,10.991 24.5,24.5v128z" fill="#000000"/>
    <path style="fill:#EF5053;" d="m105.571,227.885c3.408-4.579 5.429-10.25 5.429-16.385 0-15.164-12.336-27.5-27.5-27.5h-36c-4.142,0-7.5,3.358-7.5,7.5v40 40c0,4.142 3.358,7.5 7.5,7.5h44c15.164,0 27.5-12.336 27.5-27.5 0-10.024-5.394-18.809-13.429-23.615zm-50.571-28.885h28.5c6.893,0 12.5,5.607 12.5,12.5s-5.607,12.5-12.5,12.5h-28.5v-25zm36.5,65h-36.5v-25h28.5 8c6.893,0 12.5,5.607 12.5,12.5s-5.607,12.5-12.5,12.5z" fill="#ef5350"/>
    <path style="fill:#EF5053;" d="m199.5,184c-4.142,0-7.5,3.358-7.5,7.5v52c0,11.304-9.196,20.5-20.5,20.5s-20.5-9.196-20.5-20.5v-52c0-4.142-3.358-7.5-7.5-7.5s-7.5,3.358-7.5,7.5v52c0,19.575 15.925,35.5 35.5,35.5s35.5-15.925 35.5-35.5v-52c0-4.142-3.358-7.5-7.5-7.5z" fill="#ef5350"/>
    <path style="fill:#EF5053;" d="m299.66,185.26c-3.447-2.297-8.104-1.367-10.4,2.08l-25.76,38.639-25.76-38.639c-2.297-3.447-6.955-4.378-10.4-2.08-3.447,2.297-4.378,6.954-2.08,10.4l30.74,46.11v29.73c0,4.142 3.358,7.5 7.5,7.5s7.5-3.358 7.5-7.5v-29.729l30.74-46.11c2.298-3.447 1.367-8.104-2.08-10.401z" fill="#ef5350"/>
    <path style="fill:#EF5053;" d="m380.803,186.197c-2.929-2.929-7.678-2.929-10.606,0-2.929,2.929-2.929,7.678 0,10.606l34.697,34.697-34.697,34.697c-2.929,2.929-2.929,7.678 0,10.606 1.464,1.464 3.384,2.197 5.303,2.197s3.839-0.732 5.303-2.197l40-40c2.929-2.929 2.929-7.678 0-10.606l-40-40z" fill="#ef5350"/>
  </g>
</svg>
