<?xml version="1.0" encoding="utf-8"?>
<!-- Generator: Adobe Illustrator 19.2.0, SVG Export Plug-In . SVG Version: 6.00 Build 0) -->
<svg version="1.1" id="Layer_1" xmlns="http://www.w3.org/2000/svg" xmlns:xlink="http://www.w3.org/1999/xlink" x="0px" y="0px" viewBox="0 0 350.3 90" style="enable-background:new 0 0 350.3 90;" xml:space="preserve">
    <style type="text/css">
        .st0 {
            fill: #FFFFFF;
        }
    </style><path class="st0" d="M119.3,58l0-26c0-1.6,1.3-2.9,2.9-2.9h0c1.6,0,2.9,1.3,2.9,2.9l0,26c0,1.6-1.3,2.9-2.9,2.9l0,0	C120.7,60.9,119.3,59.6,119.3,58z"/><path
        class="st0"
        d="M152.5,59.1L139.9,39l0,19c0,1.6-1.3,2.9-2.9,2.9l0,0c-1.6,0-2.9-1.3-2.9-2.9l0-25.2c0-2.1,1.7-3.9,3.9-3.9h0.2	c1.3,0,2.6,0.7,3.3,1.8l12.5,19.8l0-18.7c0-1.6,1.3-2.9,2.9-2.9h0c1.6,0,2.9,1.3,2.9,2.9l0,25.2c0,2.1-1.7,3.9-3.9,3.9h0	C154.5,60.9,153.2,60.3,152.5,59.1z"/><path class="st0" d="M180,34.5l0,23.8c0,1.5-1.2,2.7-2.7,2.7h-0.4c-1.5,0-2.7-1.2-2.7-2.7l0-23.8l-6.7,0c-1.5,0-2.7-1.2-2.7-2.7v0	c0-1.5,1.2-2.7,2.7-2.7l19.3,0c1.5,0,2.7,1.2,2.7,2.7v0c0,1.5-1.2,2.7-2.7,2.7L180,34.5z"/><path
        class="st0"
        d="M194.1,58.3l0-26.7c0-1.4,1.2-2.6,2.6-2.6l17.5,0c1.4,0,2.6,1.2,2.6,2.6v0c0,1.4-1.2,2.6-2.6,2.6l-14.3,0l0,7.4	l12.3,0c1.4,0,2.6,1.2,2.6,2.6v0c0,1.4-1.2,2.6-2.6,2.6l-12.3,0l0,8.7l14.3,0c1.4,0,2.6,1.2,2.6,2.6v0c0,1.4-1.2,2.6-2.6,2.6	l-17.5,0C195.3,60.9,194.1,59.8,194.1,58.3z"/><path
        class="st0"
        d="M241.3,59.2l-4.6-10.3l-7.1,0l0,9.2c0,1.6-1.3,2.9-2.9,2.9h-0.1c-1.6,0-2.9-1.3-2.9-2.9l0-26.1	c0-1.6,1.3-2.9,2.9-2.9l10.6,0c7.6,0,11.1,4.8,11.1,9.9c0,4.3-2.3,7.6-5.8,8.9l4,9c0.8,1.9-0.5,4-2.6,4l0,0	C242.8,60.9,241.7,60.3,241.3,59.2z M237.3,34.1l-7.6,0l0,9.5l7.7,0c3.3,0,5.2-1.7,5.2-4.7C242.5,36.4,240.6,34.1,237.3,34.1z"/><path
        class="st0"
        d="M275.9,57.7c-2.4,2.4-5.7,3.8-9.1,3.8c-3.4,0-6.6-1.1-9-3.6c-3.5-3.5-4-7.7-4-12.9c0-5.2,0.5-9.5,4-12.9	c2.4-2.4,5.6-3.6,9-3.6c3.4,0,6.7,1.3,9.1,3.7c0.8,0.9,1.5,1.8,2,2.9c0.9,1.9-0.5,4-2.6,4h0c-1.2,0-2.2-0.7-2.7-1.8	c-0.2-0.6-0.6-1.1-1-1.6c-1-1.3-2.8-2-4.8-2c-1.8,0-3.6,0.8-4.9,2.1c-2.2,2.3-2.2,6.2-2.2,9.2c0,2.9,0,6.9,2.2,9.2	c1.3,1.3,3.1,2.1,4.9,2.1c2,0,3.8-0.7,4.8-2c0.4-0.5,0.8-1.1,1-1.7c0.4-1.1,1.5-1.8,2.7-1.8l0,0c2.1,0,3.5,2.1,2.6,4	C277.4,55.9,276.7,56.9,275.9,57.7z"/><path
        class="st0"
        d="M307,57.9c-2.4,2.4-5.8,3.6-9.2,3.6c-3.4,0-6.7-1.2-9.2-3.6c-3.5-3.5-4-7.7-4-12.9c0-5.2,0.6-9.5,4-12.9	c2.4-2.4,5.8-3.6,9.2-3.6s6.7,1.2,9.2,3.6c3.5,3.5,4,7.7,4,12.9C311.1,50.2,310.5,54.5,307,57.9z M302.9,35.9	c-1.3-1.3-3.2-2.1-5-2.1c-1.8,0-3.8,0.8-5,2.1c-2.2,2.3-2.3,6.2-2.3,9.2c0,2.9,0.1,6.8,2.3,9.1c1.3,1.3,3.2,2.1,5,2.1s3.8-0.8,5-2.1	c2.2-2.3,2.3-6.2,2.3-9.1C305.2,42.1,305.1,38.1,302.9,35.9z"/><path
        class="st0"
        d="M344.7,58.1l0-19.9l-7.5,20.3c-0.4,1.2-1.6,2-2.9,2h0c-1.3,0-2.4-0.8-2.9-2l-7.5-20.6l0,20.2	c0,1.6-1.3,2.8-2.8,2.8h0c-1.6,0-2.8-1.3-2.8-2.8l0-24.7c0-2.4,2-4.4,4.4-4.4l0.4,0c1.8,0,3.5,1.1,4.1,2.9l7.3,19.8l7.4-19.8	c0.6-1.7,2.3-2.9,4.1-2.9h0c2.4,0,4.4,2,4.4,4.4l0,24.7c0,1.6-1.3,2.8-2.8,2.8l0,0C345.9,60.9,344.7,59.7,344.7,58.1z"/><path
        class="st0"
        d="M78.8,0L11.3,0C5,0,0,5,0,11.2l0,67.5C0,85,5,90,11.3,90l67.5,0C85,90,90,85,90,78.8l0-67.5C90,5,85,0,78.8,0z M57,16.5c0-1.7,1.3-3,3-3c1.7,0,3,1.3,3,3l0,40.1c0,1.7-1.3,3-3,3c-1.7,0-3-1.3-3-3L57,16.5z M42,15c0-1.7,1.3-3,3-3	c1.7,0,3,1.3,3,3l0,43.5c0,1.7-1.3,3-3,3c-1.7,0-3-1.3-3-3L42,15z M27,16.5c0-1.7,1.3-3,3-3c1.7,0,3,1.3,3,3l0,40.1c0,1.7-1.3,3-3,3	c-1.7,0-3-1.3-3-3L27,16.5z M12,22.5c0-1.7,1.3-3,3-3c1.7,0,3,1.3,3,3l0,27c0,1.7-1.3,3-3,3s-3-1.3-3-3L12,22.5z M77,68.3	C76.5,68.7,65.4,78,45,78s-31.5-9.3-32-9.7c-1.3-1.1-1.4-3-0.3-4.2c1.1-1.3,3-1.4,4.2-0.3C17.1,63.8,27,72,45,72	c18.2,0,28-8.2,28-8.3c1.3-1.1,3.2-0.9,4.2,0.3C78.4,65.3,78.2,67.2,77,68.3z M78,49.5c0,1.7-1.3,3-3,3c-1.7,0-3-1.3-3-3l0-27	c0-1.7,1.3-3,3-3c1.7,0,3,1.3,3,3L78,49.5z"/></svg>
