<!DOCTYPE svg PUBLIC "-//W3C//DTD SVG 1.1//EN" "http://www.w3.org/Graphics/SVG/1.1/DTD/svg11.dtd">
<svg version="1.1" id="Layer_1" xmlns="http://www.w3.org/2000/svg" xmlns:xlink="http://www.w3.org/1999/xlink" x="0px" y="0px"
	 viewBox="0 0 298 150" enable-background="new 0 0 298 150" xml:space="preserve">
<g>
	<path fill="none" d="M114.7,79.9c2.1-0.1,2.7-0.7,2.7-2.8c0-0.6,0-1.2,0-1.8c-0.1-1.6-0.5-2-2-2c-2.5,0-5,0-7.6,0
		c0,2.3,0,4.5,0,6.7C110.1,79.9,112.4,79.9,114.7,79.9z"/>
	<path fill="none" d="M107.7,105.6C107.6,105.6,107.6,105.6,107.7,105.6c0-1,0-2-0.1-2.9c0-0.8-0.4-1.4-1.3-1.4
		c-1.4,0-2.8-0.1-4.2,0.1c-0.3,0-0.9,0.6-0.9,0.9c-0.1,2.3,0,4.6,0,6.8c0,0.2,0.4,0.7,0.7,0.7c1.8,0,3.5,0,5.3-0.1
		c0.2-1.3,0.3-2.6,0.5-4C107.7,105.6,107.7,105.6,107.7,105.6z"/>
	<path fill="none" d="M199.8,129.8c-0.5-0.1-1.3,0-1.6,0.4c-0.5,0.6-0.7,1.5-1,2.3c0.2,0.6,0.5,1.4,0.6,1.4c0.6,0,1.4-0.2,1.7-0.7
		c0.5-0.6,0.8-1.4,0.9-2.2C200.5,130.6,200.1,129.8,199.8,129.8z"/>
	<path fill="none" d="M205.3,130.9c0.7,0,1.3,0.1,1.9,0c0.3-0.1,0.6-0.6,0.9-0.9c-0.4-0.2-0.7-0.6-1.1-0.6
		C206,129.3,205.4,129.8,205.3,130.9z"/>
	<path fill="none" d="M223.9,78.6c0,0.8,0.2,1.1,1,1c1.8,0,3.6,0.1,5.3,0c3-0.2,3.5-0.6,3.4-3.4c0-0.6,0-1.2-0.1-1.8
		c-0.1-0.8-0.5-1.4-1.5-1.4c-1.4-0.1-2.9-0.2-4.3-0.3c0,0,0,0.1,0,0.1c-0.9,0-1.9,0-2.8,0c-0.8,0-1.1,0.2-1.1,1.1
		C224,75.4,224,77,223.9,78.6z"/>
	<path fill="none" d="M217.5,131c0.8,0,1.4,0,2-0.1c0.3-0.1,0.6-0.6,0.9-0.9c-0.4-0.2-0.7-0.6-1.1-0.6
		C218.3,129.3,217.7,129.8,217.5,131z"/>
	<path fill="none" d="M88.2,131c0.8-0.1,1.5-0.1,2.2-0.2c0.3-0.1,0.4-0.6,0.7-0.9c-0.3-0.2-0.6-0.5-0.9-0.5
		C89.1,129.2,88.4,129.7,88.2,131z"/>
	<path fill="none" d="M180.1,129.4c-1.1-0.2-1.8,0.3-2.2,1.7c0.9-0.1,1.7-0.2,2.4-0.4c0.2-0.1,0.5-0.5,0.5-0.8
		C180.7,129.7,180.3,129.4,180.1,129.4z"/>
	<path fill="none" d="M190.6,104.4c0.7,0,1.3-0.3,1.2-1.2c-0.1-0.7,0.5-1.8-0.7-1.9c-1.5-0.1-2.9,0-4.4,0c0,1.1,0,2,0,3.1
		C188.1,104.4,189.4,104.4,190.6,104.4z"/>
	<path fill="none" d="M109.2,129.7c-0.5-0.1-1.2,0-1.4,0.3c-0.5,0.8-0.9,1.7-1.2,2.6c-0.1,0.3,0.3,1.1,0.5,1.2
		c0.5,0.1,1.3,0,1.6-0.3c0.5-0.7,0.8-1.7,1.2-2.6C109.6,130.5,109.5,129.8,109.2,129.7z"/>
	<path fill="none" d="M155.1,129.8c-0.5-0.1-1.3,0.1-1.6,0.5c-0.5,0.6-0.6,1.5-0.9,2.3c0.2,0.5,0.4,1.3,0.6,1.3
		c0.6,0,1.3-0.2,1.6-0.6c0.5-0.6,0.8-1.4,1-2.1C155.8,130.7,155.5,129.9,155.1,129.8z"/>
	<path fill="none" d="M193.1,35.8c4.1,0.1,8.2,0,12.5,0c0-1.3,0.1-2.3,0-3.4c-0.1-1.9-1.1-3.2-2.9-3.3c-3.2-0.2-6.4-0.2-9.6-0.2
		c-0.3,0-0.7,0.5-0.8,0.9c-0.1,1.7-0.1,3.5,0,5.2C192.3,35.2,192.8,35.8,193.1,35.8z"/>
	<path fill="none" d="M191,106.4c-1.4,0-2.8,0-4.3,0c0,1.2,0,2.2,0,3.4c1.5,0,2.9,0,4.4,0c1.2,0,1.2-0.9,1.2-1.6
		C192.2,107.5,192.4,106.4,191,106.4z"/>
	<path fill="none" d="M127.2,127.7c-0.6,1.2-1.3,2.4-1.9,3.7c1.1,0,1.9,0,2.8,0c-0.2-1.3-0.3-2.4-0.5-3.6
		C127.5,127.8,127.4,127.7,127.2,127.7z"/>
	<path fill="none" d="M72.5,110.8c-2-1.7-4-3.4-6-5.1c-1.2-1-2.5-0.8-3.2,0.6c-0.9,1.8-0.8,3.7-0.1,5.5c0.2,0.5,0.8,1,1.4,1.2
		c1.1,0.3,2.3,0.3,3.9,0.5c1-0.2,2.5-0.3,3.8-0.8C73.5,112.3,73.5,111.7,72.5,110.8z"/>
	<path fill="none" d="M66.9,129.8c-0.5-0.1-1.3,0-1.6,0.4c-0.5,0.6-0.7,1.5-1,2.3c0.2,0.5,0.5,1.4,0.7,1.4c0.6-0.1,1.4-0.3,1.7-0.7
		c0.5-0.5,0.7-1.3,0.8-2.1C67.6,130.7,67.2,129.9,66.9,129.8z"/>
	<path fill="none" d="M255.3,129.7c-0.5-0.1-1.3,0.2-1.7,0.6c-0.4,0.5-0.6,1.4-0.8,2.1c0.2,0.5,0.5,1.4,0.6,1.4
		c0.6-0.1,1.3-0.3,1.7-0.7c0.5-0.5,0.8-1.3,0.8-1.9C256.1,130.7,255.7,129.8,255.3,129.7z"/>
	<path fill="none" d="M271.8,129.6c-1.3-0.1-2.2,1.1-2.5,3c0.4,0.5,0.7,1.2,1.2,1.4c0.8,0.3,1.6-0.1,1.9-1c0.4-1,0.8-2.1,0.1-3.1
		C272.4,129.7,272.1,129.6,271.8,129.6z"/>
	<path fill="none" d="M286.5,126.8c-1.5,0-2.6,1.2-2.6,2.6c0,1.5,1.2,2.6,2.6,2.6s2.6-1.2,2.6-2.6
		C289.1,128,287.9,126.8,286.5,126.8z M286.1,130.7c0.8,0.1,1.2-0.4,1.2-0.5l0.2,0.1c0,0-0.4,0.6-1.2,0.6c-0.1,0-0.1,0-0.2,0
		c-0.3,0-1.1-0.3-1.1-1.5l0,0c0,0,0-0.1,0-0.1c0,0,0-0.1,0-0.1l0,0c0.1-1.2,0.8-1.4,1.1-1.5c0.9-0.1,1.4,0.5,1.4,0.6l-0.2,0.1
		c0,0-0.4-0.6-1.2-0.5c-0.3,0-0.9,0.3-0.9,1.3C285.2,130.4,285.8,130.6,286.1,130.7z"/>
	<path fill="#808080"  d="M286.5,126.6c-1.6,0-2.9,1.3-2.9,2.9c0,1.6,1.3,2.9,2.9,2.9s2.9-1.3,2.9-2.9C289.4,127.9,288.1,126.6,286.5,126.6z
		 M286.5,132.1c-1.5,0-2.6-1.2-2.6-2.6c0-1.5,1.2-2.6,2.6-2.6s2.6,1.2,2.6,2.6C289.1,130.9,287.9,132.1,286.5,132.1z"/>
	<path fill="#808080"  d="M192.3,57.3c0-3.3,0-6.5,0-9.8c0-0.4,0.1-0.9,0.3-1.1c0.6-0.6,3.4,0,3.9,0.7c2.7,3.7,5.4,7.3,8,11c0.5,0.7,1,0.9,1.8,0.9
		c3.3,0,6.6,0,9.9,0c0.3,0,0.6-0.1,1.1-0.1c-0.3-0.5-0.5-0.8-0.8-1.2c-2.3-3.3-4.7-6.6-7-9.9c-0.3-0.4-0.4-1-0.4-1.4
		c0-0.2,0.7-0.4,1.2-0.4c3.9-0.2,7-2.9,7.4-6.8c0.4-3.6,0.5-7.3,0.5-10.9c0-2.1-0.6-4.1-2-5.9c-1.9-2.4-4.3-3.6-7.2-3.6
		c-9.3,0-18.5,0-27.8,0c-0.4,0-0.8,0-1.3,0c0,13.4,0,26.7,0,40.1c4.1,0,8.2,0,12.4,0C192.3,58.2,192.3,57.8,192.3,57.3z M192.3,29.7
		c0-0.3,0.5-0.9,0.8-0.9c3.2,0,6.4,0,9.6,0.2c1.8,0.1,2.7,1.4,2.9,3.3c0.1,1.1,0,2.1,0,3.4c-4.3,0-8.4,0-12.5,0
		c-0.3,0-0.8-0.5-0.8-0.8C192.3,33.2,192.3,31.5,192.3,29.7z"/>
	<path fill="#808080"  d="M58.2,57.5c1.7,1,3.6,1.4,5.6,1.4c8.9,0,17.8,0,26.7,0c1.3,0,1.6-0.3,1.6-1.6C92,42.9,92,28.5,92,14c0-0.5,0-0.9-0.1-1.4
		c-4.1,0-8.2,0-12.3,0c0,12,0,23.9,0,35.9c-3.1,0-6,0-8.8,0c-3.1,0-4.4-1.4-4.5-4.4c0-7.9,0-15.8,0-23.7c0-0.5,0-1,0-1.5
		c-4.2,0-8.3,0-12.4,0c-0.1,0.2-0.1,0.3-0.1,0.3c0,10.2-0.1,20.4,0,30.6C53.9,53,55.1,55.8,58.2,57.5z"/>
	<path fill="#808080"  d="M222.7,57.4c0,0.5,0,0.9,0,1.4c0.4,0.1,0.6,0.1,0.9,0.1c9.2,0,18.4,0.1,27.5-0.1c2.3,0,4.6-0.6,6.5-2.2
		c2.5-2.1,3.3-4.8,3.3-7.8c0.1-9.6,0-19.2,0-28.8c0-0.4,0-0.8-0.1-1.3c-4.1,0-8.2,0-12.4,0c0,0.5,0,1,0,1.4c0,8.1,0,16.2,0,24.2
		c0,2.9-1.3,4.1-4.1,4.1c-1.5,0-3,0-4.5,0c-1.6,0-3.1,0-4.8,0c0-12.1,0-24,0-36c-3.7,0-7.3,0-10.9,0c-1.2,0-1.6,0.3-1.6,1.5
		C222.7,28.5,222.7,43,222.7,57.4z"/>
	<path fill="#808080"  d="M138.5,54.5c1.8,3.4,5.1,4.3,8.6,4.4c3.2,0.1,6.5,0,9.7,0c6.1,0,12.2,0,18.4,0c0-13.3,0-26.5,0-39.7c-4.1,0-8.2,0-12.4,0
		c0,0.5,0,1,0,1.4c0,8.8,0,17.5,0,26.3c0,1.3-0.4,1.6-1.6,1.5c-2.4-0.1-4.8-0.1-7.3,0c-2.3,0-4.3-1.2-4.3-4.3c0.1-8,0-16,0-24
		c0-0.5,0-1-0.1-1.5c-4.3,0-8.4,0-12.6,0c0,10.4-0.1,20.7,0.1,31C137.1,51.3,137.7,53.1,138.5,54.5z"/>
	<path fill="#808080"  d="M97.6,58.9c3.5,0,7,0,10.5,0c0.2,0,0.5-0.1,0.8-0.2c0-3.6,0-7.2,0-10.8c0-0.8,0.2-1.1,1-1.3c2-0.4,3.9-1,5.9-1.5
		c1.3-0.3,2.7-0.6,4.3-1c0,5,0,9.8,0,14.6c4.2,0,8.2,0,12.2,0c0-13.5,0-26.9,0-40.4c-3.7,0-7.3,0-10.9,0c-1.1,0-1.4,0.4-1.4,1.5
		c0.1,4.2,0,8.4,0.1,12.6c0,0.8-0.2,1.2-1,1.4c-1.7,0.4-3.3,1-5,1.4c-1.6,0.4-3.3,0.8-5.1,1.2c0-6.1,0-12.1,0-18.1
		c-4.2,0-8.2,0-12.2,0c0,0.3-0.1,0.5-0.1,0.7c0,12.9-0.1,25.8-0.1,38.6C96.5,58.8,96.9,58.9,97.6,58.9z"/>
	<path fill="#808080"  d="M43.6,99.8c-4-3.4-7.9-6.9-11.9-10.3c-1.9-1.7-3.9-3.4-5.9-5.1C20.2,89.5,14.6,94.5,9,99.5c-0.2,0.2-0.4,0.7-0.4,1
		c0,3,0,6,0,9.1c0,0.4,0.2,0.9,0.4,1.1c2.8,2.6,5.6,5.1,8.5,7.8c1.8-1.5,3.6-3,5.5-4.6c-0.5-0.5-1-0.9-1.4-1.3
		c-2.5-2.2-4.9-4.5-7.4-6.7c-0.5-0.4-0.9-0.8-0.2-1.4c3.9-3.5,7.7-7,11.6-10.5c0.2-0.2,1-0.2,1.3,0c3.4,2.9,6.7,5.9,10.1,8.7
		c1,0.8,1,1.3,0.1,2.1c-2.9,2.6-5.7,5.2-8.7,7.9c1.8,1.5,3.4,2.9,5.1,4.2c0.2,0.1,0.9-0.1,1.1-0.3c2.2-2,4.2-4.2,6.6-6
		c2.8-2.2,4.1-4.7,3.6-8.2C44.7,101.4,44.5,100.6,43.6,99.8z"/>
	<path fill="#808080"  d="M9.5,51c2.4,2,4.8,4.1,7.2,6.2c3.3,2.8,6.6,5.6,9.9,8.5c5.3-5.5,10.4-10.9,15.7-16c1.9-1.9,2.8-3.7,2.5-6.3
		c-0.1-0.7-0.3-1.2-0.8-1.7c-2-1.7-4-3.4-6-5.2c-1.4-1.2-2.9-2.5-4.3-3.7c-1.7,1.5-3.3,3-5.1,4.5c0.4,0.3,0.6,0.6,0.9,0.8
		c2.3,2,4.6,4.1,7,6.1c0.7,0.6,0.8,0.9,0.1,1.6c-3.2,3.2-6.3,6.4-9.4,9.6c-0.6,0.6-1,0.8-1.7,0.1c-3.2-2.8-6.3-5.5-9.5-8.2
		c-0.7-0.6-0.7-1.1,0-1.8c1.1-1.1,2.2-2.2,3.3-3.3c1.5-1.5,2.9-3,4.4-4.6c-2-1.5-4-3-5.9-4.4c-3.1,3.1-6.1,6-9.1,9
		c-0.2,0.2-0.2,0.6-0.2,0.9c0,2,0,3.9,0,5.9C8.6,49.9,8.9,50.4,9.5,51z"/>
	<path fill="#808080"  d="M129.6,69.2c0,0.6,0,1,0,1.5c0,4.7,0,9.4,0,14c0,2,0,4.1,0,6.1c0,0.4,0.4,1,0.6,1c1.1,0.1,2.3,0,3.5,0c0-5.5,0-10.8,0-16
		c0.5,0.2,0.7,0.4,0.8,0.7c3,4.8,5.9,9.7,8.9,14.5c0.2,0.4,0.6,0.8,1,0.9c1.5,0.1,3,0,4.6,0c0-7.7,0-15.2,0-22.6c-1.4,0-2.6,0-4.1,0
		c0,5.4,0,10.7,0,16c-0.1,0-0.2,0.1-0.3,0.1c-0.5-0.8-1.1-1.6-1.6-2.4c-2.7-4.4-5.3-8.7-8-13.1c-0.2-0.3-0.5-0.6-0.7-0.6
		C132.8,69.2,131.2,69.2,129.6,69.2z"/>
	<path fill="#808080"   d="M114.6,83.6c1.6,0,2.1,0.4,2.3,2c0.1,1,0.1,2,0.1,3.1c0,1.1,0,2.2,0,3.3c1.4,0,2.6,0,4.1,0c-0.4-3.5,1-7.2-1.6-10.2
		c1.5-1.8,2.2-4.7,1.7-7.3c-0.6-3.2-1.7-4.5-5-5c-2.6-0.3-5.2-0.1-7.8-0.2c-1.6,0-3.2,0-4.9,0c0,7.6,0,15.1,0,22.7
		c0.9,0,1.8-0.1,2.6,0c1.2,0.1,1.4-0.3,1.4-1.4c-0.1-2.3,0-4.6,0-7.1C110.1,83.6,112.3,83.6,114.6,83.6z M107.7,73.2
		c2.6,0,5.1,0,7.6,0c1.5,0,1.9,0.5,2,2c0,0.6,0,1.2,0,1.8c0,2.1-0.6,2.8-2.7,2.8c-2.3,0.1-4.6,0-7,0
		C107.7,77.7,107.7,75.5,107.7,73.2z"/>
	<path fill="#808080"  d="M224,90.3c-0.1-2.3,0-4.6,0-7c2.5,0,5-0.1,7.4,0c1.5,0.1,2.1,0.9,2.1,2.5c0,1.9,0,3.9,0,6.1c0.6,0,1.1,0,1.6,0
		c2.5,0,2.5,0,2.5-2.5c-0.1-2.7,0.6-5.6-1.5-7.8c2-2.1,2-4.6,1.7-7.1c-0.5-3.7-2.4-5.2-6.2-5.2c-3.4,0-6.8,0-10.2,0
		c-0.4,0-0.8,0-1.2,0.1c0,7.6,0,15,0,22.6c0.8,0,1.6-0.1,2.4,0C223.6,92,224,91.6,224,90.3z M225,72.7c0.9,0.1,1.9,0,2.8,0
		c0,0,0-0.1,0-0.1c1.4,0.1,2.9,0.3,4.3,0.3c1,0,1.3,0.6,1.5,1.4c0.1,0.6,0.1,1.2,0.1,1.8c0.1,2.9-0.4,3.2-3.4,3.4
		c-1.8,0.1-3.6,0-5.3,0c-0.8,0-1-0.3-1-1c0-1.6,0.1-3.2,0-4.8C223.9,72.9,224.2,72.7,225,72.7z"/>
	<path fill="#808080"  d="M77.9,108c0.5-3,0.2-3-2.9-2.8c-0.1,0-0.1,0.1-0.3,0.2c0,0.6,0,1.2,0,1.8c0,0.9-0.5,1.1-1.1,0.5c-2.5-2.1-5-4.2-7.4-6.4
		c-1-0.9-1.3-2.3-0.8-3.6c0.4-1.2,1.5-1.3,2.5-1.4c0.7-0.1,1.4-0.1,2.2,0c1.7,0.2,2,0.5,2.1,2.2c0.1,0.5,0.1,1.1,0.2,1.7
		c0.5,0,0.8,0.1,1.1,0.1c2.5,0,2.5,0,2.4-2.4c-0.1-2.4-1.3-4.1-3.7-4.3c-2.5-0.3-5-0.2-7.4,0c-1,0.1-2.3,0.9-2.8,1.8
		c-1.3,2.1-1.3,4.4,0.2,6.6c0.3,0.4,0.4,0.9,0.6,1.3c-2.4,0.6-3.8,2-4,4.2c-0.2,1.6,0,3.2,0.2,4.8c0.3,2.2,1.8,3.5,3.9,3.8
		c2.3,0.4,4.7,0.6,7.1,0.5c1.9-0.1,3.9-0.3,5.4-1.8c0.7-0.7,1.2-0.6,1.8,0c0.6,0.5,1.1,1,1.8,1.5c0.7-0.8,1.3-1.6,2-2.4
		C78.5,112.6,77.4,110.9,77.9,108z M72.2,112.8c-1.3,0.5-2.8,0.6-3.8,0.8c-1.6-0.2-2.8-0.2-3.9-0.5c-0.5-0.1-1.2-0.7-1.4-1.2
		c-0.7-1.8-0.8-3.7,0.1-5.5c0.7-1.4,2-1.6,3.2-0.6c2,1.7,4,3.3,6,5.1C73.5,111.7,73.5,112.3,72.2,112.8z"/>
	<path fill="#808080"  d="M211.4,70.6c0-0.5,0-0.9,0-1.4c-1.5,0-2.7,0-4.2,0c0,0.5,0,1,0,1.4c0,3.7,0,7.5,0,11.2c0,1.5,0,3.1-0.1,4.6
		c0,0.9-0.5,1.5-1.3,1.6c-2.2,0.1-4.4,0.2-6.6,0.1c-1.8-0.1-2-0.4-2-2.4c0-5.1,0-10.1,0-15.2c0-0.4,0-0.8,0-1.3c-1.4,0-2.6,0-4,0
		c0,5.9-0.1,11.8,0,17.6c0,2.5,1.9,4.5,4.5,4.7c2.6,0.3,5.2,0.4,7.7,0.2c1.9-0.1,4-0.4,4.9-2.4c0.7-1.7,1-3.6,1.1-5.4
		C211.5,79.6,211.4,75.1,211.4,70.6z"/>
	<path fill="#808080"  d="M252,72.7c2.7,0,5.3,0,8,0c0-1.3,0-2.4,0-3.5c-5.1,0-10.1,0-15.1,0c0,7.5,0,15,0,22.5c5.1,0,10,0,15.1,0c0-1.2,0-2.4,0-3.7
		c-0.6,0-1.1,0-1.6,0c-2.8,0-5.6,0-8.4,0c-0.8,0-1.1-0.3-1.1-1.1c0.1-1,0-2,0-3.1c0-2.3-0.2-2,2.1-2c2.8,0,5.7,0,8.5,0
		c0-1.3,0-2.4,0-3.6c-2.8,0-5.4,0-8.1,0c-2.5,0-2.5,0-2.5-2.5C248.9,72.7,248.9,72.7,252,72.7z"/>
	<path fill="#808080"  d="M90.5,70.6c0,4.6,0,9.3,0,13.9c0,0.7,0,1.4-0.1,2c-0.1,1-0.6,1.5-1.7,1.6c-1.5,0.1-3,0.2-4.4,0.2c-3.5,0-4-0.5-4-4
		c0-4.5,0-9.1,0-13.6c0-0.5,0-0.9,0-1.4c-1.4,0-2.7,0-4,0c0,0.5,0,0.8,0,1.2c0,4.7,0,9.4,0,14.1c0,0.9,0.1,1.9,0.2,2.8
		c0.4,2,1.5,3.4,3.6,4c3,0.8,6.1,0.9,9.2,0.4c3.5-0.6,4.8-1.9,5.2-4.9c0.1-0.7,0.1-1.4,0.1-2c0-4.8,0-9.5,0-14.3
		c0-0.4,0-0.8-0.1-1.3c-1.3,0-2.5,0-4,0C90.5,69.8,90.5,70.2,90.5,70.6z"/>
	<path fill="#808080"  d="M68.7,78.3c-3.4,0-6.7,0-10.1,0c0-1.5,0.1-2.8,0-4.2c-0.1-1.2,0.4-1.5,1.5-1.5c3,0.1,5.9,0,8.9,0c0-1.3,0-2.4,0-3.5
		c-4.8,0-9.6,0-14.3,0c0,7.6,0,15,0,22.5c1.4,0,2.6,0,4,0c0-3.2,0-6.4,0-9.6c3.4,0,6.7,0,10.1,0C68.7,80.8,68.7,79.6,68.7,78.3z"/>
	<path fill="#808080"  d="M178,91.9c1.2,0.1,1.6-0.3,1.6-1.5c-0.1-5.2,0-10.5,0-15.7c0-0.5,0-1.1,0-1.7c2.3,0,4.4,0,6.6,0c0-1.3,0-2.4,0-3.7
		c-5.9,0-11.7,0-17.5,0c0,1.3,0,2.4,0,3.7c1.9,0,3.7,0,5.5,0c1,0,1.3,0.2,1.3,1.3c-0.1,5.4,0,10.7,0,16.1c0,0.5,0,1,0,1.5
		C176.5,91.9,177.2,91.8,178,91.9z"/>
	<path fill="#808080"   d="M9.4,66.3c2.9,2.6,5.8,5.1,8.8,7.7c1.7-1.5,3.5-3.1,5.4-4.7c-4.9-4.3-9.8-8.6-14.9-13c0,3,0,5.7,0,8.4
		C8.7,65.2,9,65.9,9.4,66.3z"/>
	<path fill="#808080"  d="M44.8,55c-4.8,4.8-9.5,9.5-14.2,14.3c1.6,1.3,3.4,2.6,5.4,4.2c2.9-3,5.8-5.9,8.6-8.9c0.1-0.1,0.2-0.3,0.2-0.4
		C44.8,61.1,44.8,58.1,44.8,55z"/>
	<path fill="#808080"  d="M42.4,85.5c-3-2.1-5.7-4.6-8.6-7.1c-1.6,1.5-3.1,2.9-4.8,4.4c5.2,4.4,10.4,8.7,15.8,13.2c0-1.9-0.1-3.4,0-5
		C45.1,88.7,44.5,87,42.4,85.5z"/>
	<path fill="#808080"   d="M33.9,25c0.4-0.3,0.7-0.6,1-0.9c2.9-2.6,5.7-5.4,8.6-7.9c1.4-1.2,1.5-2.5,1.2-4.2c-1,0-2,0.1-3,0c-2.7-0.2-5.2,0-6.9,2.6
		c-0.1,0.1-0.3,0.2-0.4,0.3c-2,1.8-4,3.7-6,5.6C30.3,22,32,23.4,33.9,25z"/>
	<path fill="#808080"  d="M9,18.3c2.8,2.6,5.6,5.1,8.4,7.7c1.8-1.5,3.6-3,5.4-4.5c-0.4-0.4-0.7-0.8-1-1.1c-2.6-2.4-5.1-4.7-7.7-7.1
		c-0.3-0.3-0.5-0.8-0.7-1.3c-1.4,0-3,0-4.7,0c0,1.9,0,3.7,0,5.6C8.7,17.9,8.8,18.2,9,18.3z"/>
	<path fill="#808080"   d="M8.6,95.8c4.9-4.4,9.6-8.5,14.3-12.7c-1.5-1.3-3-2.6-4.5-3.9c-0.2-0.2-0.8-0.1-1,0.1c-2.9,2.5-5.7,5-8.5,7.5
		c-0.2,0.2-0.3,0.4-0.3,0.6C8.6,90,8.6,92.7,8.6,95.8z"/>
	<path fill="#808080"   d="M43.3,133.2c-1.2-0.9-2.2-1.9-3.4-2.9c-2-1.7-4-3.5-6.1-5.3c-1.7,1.5-3.3,2.9-5,4.4c2.6,2.3,5.2,4.5,7.6,6.8
		c0.4,0.4,0.7,1,1.1,1.8c2.1,0,4.5,0,7.1,0c0-0.7-0.1-1.2,0-1.7C45.1,134.9,44.4,134,43.3,133.2z"/>
	<path fill="#808080"  d="M161.8,69.3c-1.5,0-2.7,0-4.1,0c0,7.5,0,14.9,0,22.6c1,0,1.8-0.1,2.7,0c1.1,0.1,1.5-0.3,1.5-1.4c-0.1-6.7,0-13.3,0-20
		C161.9,70,161.8,69.6,161.8,69.3z"/>
	<path fill="#808080"  d="M23.6,130c-1.9-1.5-3.7-2.9-5.4-4.1c-2.8,2.7-5.6,5.5-8.4,8.1c-1.3,1.2-1.3,2.5-1.1,4.1c2.1,0,4.1,0,6.2,0
		c0.5,0,1.2-0.3,1.5-0.6c2.1-2.1,4.2-4.2,6.3-6.3C23,130.7,23.3,130.4,23.6,130z"/>
	<path fill="#808080"  d="M191.8,99.4c-2.4-0.2-4.9,0-7.4,0c0,4.2,0,8.2,0,12.4c2.2,0,4.2,0,6.2,0c3,0,4.7-2.7,3.3-5.3c-0.5-0.9-0.6-1.6-0.2-2.7
		C194.6,101.8,193.6,99.5,191.8,99.4z M186.7,101.3c1.5,0,3-0.1,4.4,0c1.2,0.1,0.6,1.2,0.7,1.9c0.2,0.9-0.5,1.1-1.2,1.2
		c-1.3,0.1-2.5,0-4,0C186.7,103.3,186.7,102.4,186.7,101.3z M191.1,109.8c-1.4,0-2.9,0-4.4,0c0-1.2,0-2.2,0-3.4c1.5,0,2.9,0,4.3,0
		c1.3,0,1.2,1,1.2,1.8C192.3,108.9,192.2,109.8,191.1,109.8z"/>
	<path fill="#808080"  d="M232.3,109.6c0.1-0.8,0.1-1.7,0-2.5c-0.2-1.6-0.7-2.2-2.3-2.4c-1.3-0.2-2.7-0.2-4-0.4c-0.4-0.1-1-0.4-1-0.7
		c-0.1-0.7,0-1.9,0.3-2c1.3-0.2,2.8-0.3,4.1-0.2c0.4,0,0.7,1.1,1.1,1.9c0.4,0,1,0,1.7,0c0.2-2-0.3-3.4-1.6-3.8c-2-0.6-4-0.7-6,0.1
		c-1.4,0.5-2.1,2.2-1.8,3.8c0.3,1.8,1.4,2.9,3.2,3c1.1,0.1,2.2,0.1,3.3,0.3c0.4,0.1,1,0.5,1,0.7c0.1,2.1,0.4,2.6-2,2.6
		c-0.3,0-0.7,0-1,0c-2.2,0-2.2,0-2.3-2.2c0-0.1-0.1-0.1-0.1-0.3c-0.6,0-1.3,0-1.9,0c-0.3,2.3,0.3,3.9,1.9,4.1
		c1.9,0.2,3.9,0.1,5.8-0.1C231.7,111.5,232.2,110.6,232.3,109.6z"/>
	<path fill="#808080"  d="M109.4,109.5c0.2-1.3,0.3-2.7,0.5-4.1c-0.2-1.3-0.3-2.6-0.6-4c-0.2-1.4-1.2-2-2.5-2.1c-1.5-0.1-3.1-0.1-4.7,0
		c-2,0.2-3.2,1.4-3.3,3.4c-0.1,2.2,0.1,4.3,0.2,6.5c0.1,1.5,0.9,2.4,2.4,2.5c1.9,0.1,3.8,0.1,5.7,0
		C108.4,111.6,109.3,110.8,109.4,109.5z M101.9,109.7c-0.2,0-0.7-0.4-0.7-0.7c-0.1-2.3-0.1-4.6,0-6.8c0-0.3,0.6-0.9,0.9-0.9
		c1.4-0.1,2.8-0.1,4.2-0.1c0.9,0,1.3,0.6,1.3,1.4c0,1,0,1.9,0,2.9c0,0,0,0,0,0c0,0,0,0.1,0,0.1c-0.2,1.3-0.3,2.6-0.5,4
		C105.4,109.7,103.7,109.8,101.9,109.7z"/>
	<path fill="#808080"  d="M160.3,109.6c0.1-0.8,0-1.7,0-2.5c-0.8,0-1.4,0-2,0c0.1,2.7-0.1,2.9-2.8,2.9c-0.7,0-1.4,0-2.1-0.2
		c-0.3-0.1-0.9-0.5-0.9-0.8c-0.1-2.4-0.1-4.7-0.1-7.1c0-0.2,0.4-0.6,0.6-0.6c0.7-0.2,1.3-0.2,2-0.3c2.7-0.1,2.7,0,3,2.5
		c0.7,0,1.3,0,2.1,0c0-0.5,0-0.9,0-1.3c-0.2-1.7-1-2.9-2.3-3c-1.7-0.1-3.5-0.1-5.2,0.1c-1.4,0.1-2.6,1.4-2.6,2.5
		c0,2.2-0.1,4.5,0,6.7c0.1,1.8,1,2.9,2.8,3.1c1.8,0.2,3.5,0.1,5.3,0C159.6,111.6,160.2,110.7,160.3,109.6z"/>
	<path fill="#808080"  d="M146,101.2c0-0.7,0-1.3,0-1.9c-2.8,0-5.5,0-8.3,0c0,4.1,0,8.2,0,12.3c2.9,0,5.6,0,8.3,0c0-0.7,0-1.2,0-1.9c-2,0-4,0-5.9,0
		c0-1.2,0-2.3,0-3.5c2,0,3.9,0,5.7,0c0-0.7,0-1.2,0-1.9c-2,0-3.8,0-5.8,0c0-1.1,0-2.1,0-3.2C142.1,101.2,144.1,101.2,146,101.2z"/>
	<path fill="#808080"  d="M218.8,109.8c-2,0-4,0-6,0c0-1.2,0-2.3,0-3.4c2,0,3.8,0,5.7,0c0-0.7,0-1.3,0-2c-2,0-3.9,0-5.7,0c0-1.1,0-2,0-3.1
		c2.1,0,4,0,6,0c0-0.7,0-1.2,0-1.9c-2.8,0-5.5,0-8.2,0c0,4.2,0,8.2,0,12.3c2.8,0,5.5,0,8.2,0C218.8,111,218.8,110.5,218.8,109.8z"/>
	<path fill="#808080"  d="M87.7,99.4c-1.2,0.2-2.4,1-2.4,2.3c-0.1,2.5,0,5.1,0.2,7.6c0.1,1.4,1.1,2.3,2.5,2.4c1.8,0.1,3.5,0.1,5.3,0
		c1.1-0.1,1.8-0.9,2-2c0.1-0.8,0-1.7,0-2.6c-0.7,0-1.3,0-1.9,0C93,110,93,110,90,110c-0.3,0-0.6,0-0.9,0c-1.1,0-1.7-0.6-1.7-1.7
		c0-1.5-0.1-3-0.1-4.5c0-2.4,0.2-2.6,2.5-2.7c0.2,0,0.4,0,0.6,0c2.3,0,2.4,0,2.6,2.3c0,0.1,0.1,0.1,0.1,0.2c0.6,0,1.3,0,2,0
		c0.3-2.9-0.6-4.2-3.4-4.4C90.5,99,89.1,99.2,87.7,99.4z"/>
	<path fill="#808080"  d="M31.3,104.4c-1.9-1.6-3.7-3.1-5.6-4.7c-2,1.8-3.8,3.5-5.7,5.2c1.8,1.5,3.4,2.9,5.1,4.3c0.2,0.2,0.8,0.2,1,0
		C27.9,107.7,29.6,106.1,31.3,104.4z"/>
	<path fill="#808080"  d="M44.3,36.8c0.1-0.1,0.3-0.2,0.4-0.4c0-4.3,0-8.7,0-13.2c-2.7,2.1-5.1,4.1-7.2,5.7C39.9,31.7,42.1,34.2,44.3,36.8z"/>
	<path fill="#808080"  d="M44.8,115.7c-2.6,2.1-5.1,4.1-7.6,6.1c2.5,2.4,5,4.8,7.6,7.3C44.8,124.5,44.8,120.2,44.8,115.7z"/>
	<path fill="#808080"  d="M26.8,50.4c1.6-1.7,3.1-3.3,4.7-4.9c-1.7-1.4-3.5-2.8-5.4-4.2c-1.6,1.7-3.1,3.2-4.6,4.9C23.2,47.5,24.9,48.9,26.8,50.4z"/>
	<path fill="#808080"  d="M44.7,82.6c0-4.3,0-8.2,0-12.4c-2.5,2.2-4.7,4.2-7.1,6.3C40,78.5,42.3,80.5,44.7,82.6z"/>
	<path fill="#808080"  d="M173.4,99.4c-3.3,0-6.5,0-9.8,0c0,0.7,0,1.2,0,2c1.3,0,2.5,0,3.8,0c0,3.5,0,6.9,0,10.4c0.8,0,1.4,0,2.2,0
		c0-3.5,0-6.9,0-10.5c1.3,0,2.5,0,3.8,0C173.4,100.6,173.4,100,173.4,99.4z"/>
	<path fill="#808080"  d="M25.6,25.1c-1.6,1.5-3.2,3-4.7,4.4c1.8,1.5,3.4,2.9,5.2,4.3c1.6-1.5,3.1-2.9,4.7-4.4C29,28,27.3,26.6,25.6,25.1z"/>
	<path fill="#808080"  d="M26.1,126.3c1.6-1.5,3.2-2.9,4.7-4.4c-1.8-1.5-3.5-2.8-5.2-4.3c-1.6,1.5-3.1,2.9-4.7,4.4C22.7,123.4,24.4,124.8,26.1,126.3
		z"/>
	<path fill="#808080"  d="M8.8,70.4c0,4.1,0,7.8,0,11.8c2.3-2,4.5-3.8,6.7-5.7C13.3,74.4,11.1,72.5,8.8,70.4z"/>
	<path fill="#808080"  d="M31.2,76c-1.5-1.4-2.9-2.7-4.4-4c-1.9,1.6-3.6,3-5.3,4.5c1.5,1.4,2.9,2.6,4.4,4C27.7,79,29.4,77.6,31.2,76z"/>
	<path fill="#808080"  d="M126.1,99.3c0,4.2,0,8.2,0,12.3c2.8,0,5.5,0,8.2,0c0-0.6,0-1.2,0-1.9c-1.7,0-3.3,0-5,0c-0.9,0-1.2-0.3-1.1-1.2
		c0.1-1.3,0-2.6,0-4c0-1.8,0-3.5,0-5.3C127.5,99.3,126.8,99.3,126.1,99.3z"/>
	<path fill="#808080"  d="M122.2,109.7c-2,0-4,0-6,0c0-3.6,0-6.9,0-10.3c-0.8,0-1.5,0-2.1,0c0,4.1,0,8.2,0,12.3c2.8,0,5.4,0,8.2,0
		C122.2,111,122.2,110.4,122.2,109.7z"/>
	<path fill="#808080"  d="M236.3,128.4c-0.6,0.3-1.1,0.7-1.7,1c-1.2-1.7-1.8-1.7-3.9-0.2c-0.3-0.3-0.5-0.7-0.8-0.8c-0.2-0.1-0.7,0.2-0.8,0.5
		c-0.5,2-0.8,4.1-1.2,6.2c1.5,0.2,1.6,0.2,1.9-1.1c0.3-1.2,0.7-2.4,1.2-3.5c0.2-0.4,1-0.5,1.5-0.7c0.1,0.5,0.4,1.1,0.3,1.6
		c-0.2,1.3-0.5,2.5-0.7,3.8c1.5,0.3,1.5,0.2,1.8-1c0.3-1.2,0.5-2.4,1.1-3.5c0.2-0.5,1.1-0.6,1.6-1c0.1,0.5,0.4,1.1,0.3,1.6
		c-0.2,1.3-0.5,2.5-0.7,3.7c0.1,0.1,0.2,0.2,0.3,0.4c0.5-0.2,1.3-0.3,1.4-0.6c0.4-1.6,0.7-3.2,0.8-4.9
		C238.8,128.5,237.5,127.8,236.3,128.4z"/>
	<path fill="#808080"  d="M8.8,116.8c0,3.9,0,7.6,0,11.5c2.3-2.1,4.4-4.1,6.6-6.2C13.1,120.3,11,118.6,8.8,116.8z"/>
	<path fill="#808080"  d="M207,109.7c-1.5,0-2.9,0-4.3,0c-1.7,0-1.7,0-1.7-1.7c0-2.9,0-5.7,0-8.6c-0.7,0-1.4,0-2,0c0,4.1,0,8.2,0,12.3
		c2.8,0,5.4,0,8,0C207,111,207,110.4,207,109.7z"/>
	<path fill="#808080"  d="M8.7,35.8c2.2-2.1,4.3-4,6.5-6.1c-2.2-1.8-4.3-3.4-6.5-5.2C8.7,28.3,8.7,31.9,8.7,35.8z"/>
	<path fill="#808080"  d="M130.2,134.3c-0.3-2.4-0.7-4.8-1.1-7.2c-0.1-0.5-0.4-1.1-0.7-1.2c-0.8-0.2-1.6-0.2-2.1,0.8c-1.1,2.2-2.3,4.3-3.5,6.5
		c-0.3,0.6-0.6,1.2-0.9,1.9c1.1,0.4,1.7,0.1,2.1-0.8c0.2-0.5,0.7-1.2,1.1-1.2c1-0.2,2.1-0.1,3.1-0.1c0.2,0.8,0.3,1.5,0.5,2.4
		C129.3,135,130.4,135.7,130.2,134.3z M125.3,131.4c0.7-1.3,1.3-2.5,1.9-3.7c0.1,0,0.2,0,0.3,0.1c0.2,1.2,0.3,2.4,0.5,3.6
		C127.1,131.4,126.3,131.4,125.3,131.4z"/>
	<path fill="#808080"  d="M68.5,126.4c-0.1,0.8-0.3,1.5-0.5,2.4c-1.3-0.9-2.5-1-3.6,0.1c-1.1,1.1-1.6,2.5-1.5,4c0.1,0.8,0.4,1.7,1,2.2
		c0.7,0.7,1.7,0.2,2.4-0.2c0.2-0.1,0.4-0.3,0.4-0.3c0.5,0.3,0.9,0.7,1.2,0.6c0.3-0.1,0.6-0.6,0.7-1c0.4-1.5,0.6-3,0.9-4.4
		c0.3-1.4,0.5-2.8,0.8-4.3C69.1,125.2,68.6,125.4,68.5,126.4z M67.5,131.1c-0.1,0.7-0.4,1.5-0.8,2.1c-0.4,0.4-1.1,0.6-1.7,0.7
		c-0.1,0-0.4-0.8-0.7-1.4c0.3-0.8,0.5-1.7,1-2.3c0.3-0.4,1.1-0.5,1.6-0.4C67.2,129.9,67.6,130.7,67.5,131.1z"/>
	<path fill="#808080"  d="M108,128.7c-0.2,0.1-0.4,0.1-0.7,0.3c0.2-1.3,0.3-2.4,0.5-3.5c-1.2-0.3-1.6,0.1-1.7,1.1c-0.1,1.1-0.4,2.1-0.6,3.2
		c-0.3,1.8-0.7,3.5-1,5.3c0.1,0.1,0.1,0.2,0.2,0.3c1.2-1,2.2-0.1,3.2,0.1c0.2,0,0.4-0.1,0.6-0.1c2-0.5,2.8-2.5,2.9-4.6
		c0-0.8-0.5-1.7-1-2.3C109.7,127.8,108.8,128.2,108,128.7z M108.7,133.6c-0.2,0.3-1.1,0.4-1.6,0.3c-0.3-0.1-0.6-0.9-0.5-1.2
		c0.2-0.9,0.6-1.8,1.2-2.6c0.2-0.3,1-0.4,1.4-0.3c0.3,0.1,0.4,0.7,0.7,1.3C109.5,131.9,109.2,132.8,108.7,133.6z"/>
	<path fill="#808080"  d="M201.4,126.3c-0.1,0.8-0.3,1.6-0.6,2.6c-1.3-1.2-2.5-1-3.6-0.1c-1.2,1-1.6,2.5-1.6,4c0,1,0.1,1.9,1.1,2.4
		c1,0.5,1.8,0,2.5-0.5c0.1-0.1,0.3-0.2,0.2-0.1c0.5,0.3,0.9,0.6,1.3,0.6c0.2,0,0.6-0.5,0.6-0.8c0.6-2.9,1.2-5.9,1.8-8.9
		C202.2,125.2,201.6,125.2,201.4,126.3z M200.4,131c-0.1,0.8-0.4,1.6-0.9,2.2c-0.4,0.4-1.1,0.6-1.7,0.7c-0.2,0-0.4-0.9-0.6-1.4
		c0.3-0.8,0.5-1.7,1-2.3c0.3-0.4,1.1-0.5,1.6-0.4C200.1,129.8,200.5,130.6,200.4,131z"/>
	<path fill="#808080"  d="M31,12.2c-3.7,0-7.3,0-10.9,0c0,0.1-0.1,0.2-0.1,0.3c1.8,1.5,3.6,3.1,5.6,4.7C27.4,15.5,29.2,13.9,31,12.2z"/>
	<path fill="#808080"  d="M156.1,129c-1.4-1.1-2.4-1.3-3.4,0c-0.8,0.9-1.3,2.1-1.6,3.3c-0.3,1-0.2,2.2,1,2.9c1.1,0.7,2-0.1,2.9-0.7
		c0.1,0,0.2,0,0.1,0c0.5,0.3,0.9,0.7,1.1,0.6c0.3-0.1,0.7-0.6,0.8-1c0.3-0.8,0.4-1.7,0.5-2.6c0.2-1,0.4-2.1,0.6-3.1
		c-0.1-0.1-0.2-0.2-0.3-0.2C157.1,128.5,156.6,128.7,156.1,129z M155.8,131.2c-0.1,0.8-0.5,1.6-1,2.1c-0.3,0.4-1.1,0.5-1.6,0.6
		c-0.2,0-0.4-0.8-0.6-1.3c0.3-0.8,0.5-1.7,0.9-2.3c0.3-0.4,1.1-0.6,1.6-0.5C155.5,129.9,155.8,130.7,155.8,131.2z"/>
	<path fill="#808080"  d="M256.4,129c-1.4-1.2-2.4-1.3-3.5,0c-0.8,1-1.2,2.3-1.6,3.5c-0.3,1,0,2.1,1,2.7c1.1,0.7,1.9,0,2.8-0.6
		c0.1-0.1,0.2-0.1,0.2-0.1c0.4,0.3,0.7,0.6,1,0.7c0.2,0,0.7-0.3,0.7-0.5c0.5-2,0.9-4,1.3-6c-0.1-0.1-0.2-0.2-0.3-0.3
		C257.4,128.5,256.9,128.7,256.4,129z M255.2,133.1c-0.4,0.4-1.1,0.6-1.7,0.7c-0.1,0-0.4-0.9-0.6-1.4c0.3-0.8,0.4-1.6,0.8-2.1
		c0.3-0.4,1.2-0.7,1.7-0.6c0.3,0.1,0.7,1,0.7,1.5C256,131.9,255.6,132.6,255.2,133.1z"/>
	<path fill="#808080"  d="M177.4,111.7c0.8,0,1.4,0,2.2,0c0-3.8,0-7.5,0-11.1c0-0.4,0-0.7,0-1.2c-0.8,0-1.4,0-2.2,0
		C177.4,103.5,177.4,107.6,177.4,111.7z"/>
	<path fill="#808080"  d="M190.3,127.8c-0.1-1.4,1.1-1.2,1.9-1.4c0.3-1.1-0.3-1.4-1.1-1.3c-1.2,0.1-2,0.8-2.3,2c-0.1,0.4-0.4,0.9-0.6,1.3
		c-0.2,0.4-0.6,0.7-0.9,1c0.3,0.3,0.6,0.5,0.9,0.8c-0.3,1.5-0.6,3.2-0.9,4.8c-0.2,0.7-0.1,1.7-1.3,1.6c-0.2,0-0.6,0.5-0.6,0.8
		c0,0.2,0.4,0.6,0.7,0.6c1.2,0.2,2.4-0.8,2.7-2.3c0.4-1.9,0.8-3.9,1.2-5.8c1,0.1,1.7-0.1,1.6-0.9
		C190.9,128.4,190.3,128.1,190.3,127.8z"/>
	<path fill="#808080"  d="M135.9,128.5c-0.4,0-0.8-0.1-1.1-0.1c-0.3-1.7,0.8-1.8,1.9-1.9c0.3-1.2-0.4-1.5-1.3-1.3c-1.2,0.2-1.9,0.9-2.2,2.1
		c-0.1,0.4-0.3,0.8-0.6,1.1c-0.3,0.4-0.8,0.7-1.4,1.3c0.8,0.2,1.1,0.3,1.4,0.3c-0.3,1.7-0.6,3.4-1,5c-0.1,0.6-0.1,1.5-1.1,1.6
		c-0.3,0-0.5,0.6-0.8,0.8c0.4,0.2,0.7,0.6,1.1,0.6c1.2,0,2.1-1,2.4-2.4c0.4-1.9,0.8-3.8,1.2-5.7
		C135.2,129.9,136.1,129.8,135.9,128.5z"/>
	<path fill="#808080"  d="M271.2,128.2c-2.1,0.5-3.3,2.1-3.4,4.5c0,2,1.5,3.2,3.4,2.7c2.1-0.5,2.9-1.9,3.3-3.8C275.2,128.9,272.9,127.8,271.2,128.2z
		 M272.4,133c-0.4,0.8-1.1,1.3-1.9,1c-0.5-0.2-0.8-0.9-1.2-1.4c0.3-1.9,1.2-3.1,2.5-3c0.3,0,0.7,0.1,0.8,0.3
		C273.3,130.9,272.9,132,272.4,133z"/>
	<path fill="#808080"   d="M116.8,129.5c-0.3,0.8-0.6,1.7-1,2.5c-0.2,0.3-0.4,0.6-0.7,0.9c-0.1-0.1-0.2-0.1-0.3-0.2c-0.2-1.2-0.4-2.5-0.7-3.7
		c-0.1-0.3-0.7-0.5-1-0.5c-0.1,0-0.5,0.5-0.5,0.8c0,0.4,0.1,0.9,0.2,1.4c0.4,2.4,1.4,5-0.8,7.1c0,0,0,0.2,0,0.2
		c1.3,0.2,1.5,0.2,2.1-0.8c0.9-1.3,1.8-2.5,2.5-3.8c0.8-1.5,1.5-3.1,2.2-4.6C117.7,128.1,117.2,128.5,116.8,129.5z"/>
	<path fill="#808080"  d="M279.5,128.3c-0.6,0.2-1.1,0.5-1.5,0.7c-0.5-0.3-0.8-0.7-1.1-0.6c-0.3,0.1-0.7,0.5-0.8,0.8c-0.4,1.4-0.6,2.9-0.9,4.3
		c-0.1,0.5-0.1,1-0.2,1.5c1.3,0.4,1.5-0.3,1.8-1.1c0.3-1.1,0.5-2.3,1-3.3c0.2-0.5,1.1-0.6,1.7-0.9c0.1,0.6,0.3,1.2,0.3,1.8
		c-0.1,1.2-0.5,2.4-0.7,3.6c0.1,0.1,0.2,0.3,0.3,0.4c0.5-0.2,1.2-0.4,1.3-0.7c0.4-1.6,0.7-3.2,0.9-4.8
		C281.9,128.6,280.8,127.9,279.5,128.3z"/>
	<path fill="#808080"  d="M164.7,128.4c-1-0.6-1.9-0.1-2.7,0.5c-0.1,0.1-0.3,0.2-0.3,0.2c-0.4-0.3-0.8-0.6-1.1-0.7c-0.2,0-0.6,0.3-0.6,0.5
		c-0.4,2-0.8,4.1-1.2,6.1c1.3,0.5,1.6-0.1,1.8-1c0.3-1.1,0.5-2.3,1-3.4c0.2-0.5,1.1-0.7,1.7-1c0.1,0.6,0.4,1.2,0.3,1.8
		c-0.1,1.2-0.4,2.4-0.7,3.6c1.3,0.4,1.7,0,1.9-1c0.1-1,0.4-2,0.6-3C165.6,130,165.7,129,164.7,128.4z"/>
	<path fill="#808080"  d="M247.9,128.3c-0.6,0.2-1.1,0.7-1.6,0.9c-0.3-0.3-0.5-0.6-0.8-0.9c-0.3,0.3-0.8,0.6-0.9,1c-0.3,1.2-0.6,2.4-0.8,3.6
		c-0.1,0.7-0.2,1.5-0.3,2.1c1.3,0.5,1.6-0.2,1.8-1.1c0.3-1.2,0.6-2.4,1.1-3.4c0.2-0.4,1.1-0.6,1.7-0.9c0.1,0.6,0.3,1.2,0.3,1.8
		c-0.1,1.2-0.5,2.4-0.7,3.6c0.1,0.1,0.2,0.2,0.3,0.4c0.5-0.2,1.3-0.4,1.3-0.7c0.4-1.6,0.7-3.2,0.9-4.8
		C250.3,128.6,249.1,127.9,247.9,128.3z"/>
	<path fill="#808080"  d="M97.6,128.4c-0.6,0.2-1.1,0.6-1.5,0.9c-0.2-0.3-0.5-0.6-0.8-0.8c-0.2-0.1-0.7,0.2-0.8,0.4c-0.5,2-0.9,4.1-1.3,6.1
		c1.3,0.5,1.7-0.1,1.9-1c0.2-1,0.3-2.1,0.8-3c0.3-0.6,1.3-0.9,1.9-1.3c0.1,0.7,0.3,1.3,0.2,2c-0.1,1.1-0.4,2.3-0.7,3.8
		c0.8-0.4,1.7-0.5,1.7-0.8c0.4-1.6,0.7-3.2,0.8-4.8C100,128.6,98.8,127.9,97.6,128.4z"/>
	<path fill="#808080"   d="M181.4,128.5c-0.7-0.3-1.6-0.4-2.3-0.2c-1.8,0.4-3,2.2-3.1,4.3c-0.1,2,1.2,3.1,3.1,2.8c0.4-0.1,0.7-0.2,1.1-0.2
		c0.9-0.2,1.1-0.7,1.1-1.5c-3.3,0.6-3.7,0.5-3.5-1.4c0.7-0.1,1.3-0.1,2-0.3c0.6-0.1,1.2-0.3,1.8-0.6
		C182.7,130.7,182.7,129.1,181.4,128.5z M180.3,130.7c-0.7,0.2-1.5,0.2-2.4,0.4c0.4-1.4,1.1-1.9,2.2-1.7c0.3,0,0.7,0.3,0.7,0.6
		C180.8,130.2,180.5,130.6,180.3,130.7z"/>
	<path fill="#808080"   d="M209.1,128.7c-0.7-0.4-1.7-0.6-2.5-0.5c-1.9,0.3-3.2,2.2-3.3,4.4c0,1.9,1,2.9,2.9,2.8c0.5,0,0.9-0.1,1.4-0.3
		c0.8-0.2,1.2-0.7,1-1.6c-3.2,0.7-3.8,0.4-3.5-1.2c1.3-0.4,2.6-0.6,3.8-1.1C209.9,130.9,210,129.2,209.1,128.7z M207.2,130.8
		c-0.6,0.1-1.2,0-1.9,0c0.1-1.1,0.7-1.6,1.7-1.5c0.4,0,0.7,0.4,1.1,0.6C207.8,130.3,207.6,130.8,207.2,130.8z"/>
	<path fill="#808080"  d="M91.3,128.4c-2-1-4.3,0.4-4.9,2.9c-0.6,2.6,0,3.8,2.1,4.1c0.6,0.1,1.2-0.2,1.9-0.2c0.9-0.1,1.1-0.7,1.1-1.5
		c-3.5,0.5-3.7,0.5-3.6-1.3c1.3-0.3,2.5-0.5,3.6-0.9c0.5-0.2,1-1.1,0.9-1.6C92.4,129.4,91.9,128.7,91.3,128.4z M90.4,130.8
		c-0.7,0.2-1.4,0.2-2.2,0.2c0.2-1.3,0.9-1.8,1.9-1.7c0.3,0,0.6,0.3,0.9,0.5C90.8,130.2,90.6,130.7,90.4,130.8z"/>
	<path fill="#808080"  d="M221.2,128.7c-0.7-0.4-1.6-0.6-2.4-0.5c-2,0.3-3.3,2.3-3.3,4.5c0,1.7,0.8,2.7,2.6,2.7c0.6,0,1.2,0,1.7-0.3
		c0.5-0.2,0.8-0.8,1.2-1.2c-3.7,0.2-4.1,0.1-3.7-1.5c1.3-0.4,2.6-0.5,3.7-1C222.2,130.9,222.3,129.2,221.2,128.7z M219.5,130.8
		c-0.6,0.2-1.2,0.1-2,0.1c0.2-1.2,0.8-1.7,1.8-1.7c0.4,0,0.7,0.4,1.1,0.6C220.1,130.3,219.8,130.7,219.5,130.8z"/>
	<path fill="#808080"  d="M83.9,129.5c-0.5,1.3-1.1,2.5-1.6,3.8c-0.1-0.1-0.3-0.1-0.4-0.2c-0.2-1.3-0.3-2.7-0.6-4c-0.1-0.3-0.7-0.5-1-0.7
		c-0.2,0.3-0.5,0.6-0.5,0.9c0.1,1.5,0.3,3,0.6,4.5c0.1,0.5,0.4,1.3,0.6,1.3c0.6,0,1.6-0.1,1.9-0.5c1.2-1.9,2.2-3.8,3.3-5.9
		C84.7,128.1,84.2,128.6,83.9,129.5z"/>
	<path fill="#808080"  d="M25.5,134.4c-1.2,1.1-2.3,2.2-3.6,3.5c3.2,0,6.1,0,9.3,0c-1.6-1.3-2.9-2.4-4.4-3.5C26.6,134.2,25.8,134.2,25.5,134.4z"/>
	<path fill="#808080"  d="M213.7,128.3c0-0.6,0-1.1,0-1.6c-0.7-0.2-1.3-0.3-1.5,0.6c-0.1,0.5-0.2,1.1-1,1.2c-0.1,0-0.3,1.2-0.3,1.2
		c1.1,0.4,0.5,1.1,0.4,1.8c-0.1,0.8-0.3,1.7-0.3,2.5c-0.1,1,0.6,1.5,1.5,1.5c0.8,0,1.6-0.2,1.6-1.4c-0.4,0-0.8-0.1-1.5-0.2
		c0.2-1.4,0.5-2.7,0.7-4.1c1.2,0.2,2,0,1.9-1.4C214.6,128.4,214.2,128.4,213.7,128.3z"/>
	<path fill="#808080"  d="M262.2,126.8c-0.9-0.4-1.4-0.1-1.6,0.8c-0.1,0.3-0.4,0.6-0.6,0.8c-0.3,0.3-0.7,0.6-0.7,0.9c0,0.2,0.4,0.5,0.8,0.9
		c-0.2,1.1-0.5,2.3-0.5,3.6c0,0.5,0.5,1.2,0.9,1.4c0.5,0.2,1.3,0,1.9-0.2c0.2,0,0.2-0.6,0.3-1c-0.5,0-0.9-0.1-1.5-0.1
		c0.2-1.4,0.5-2.7,0.7-4c0.6,0,1.1-0.1,1.7-0.1c0.1-0.5,0.1-0.9,0.2-1.4c-0.4,0-0.9-0.1-1.4-0.1
		C262.2,127.7,262.2,127.2,262.2,126.8z"/>
	<path fill="#808080"  d="M150.3,129.6c-0.1-0.2,0-0.9-0.3-1.1c-0.6-0.3-1.3-0.4-1.9-0.3c-2.2,0.5-3.8,3.4-3.2,5.6c0.3,1.1,1.5,1.8,2.5,1.7
		c1.5-0.2,2-0.7,1.9-2c-0.4,0.2-0.7,0.4-1.1,0.5c-0.7,0.1-1.6,0.2-1.6-0.7c0.1-1.1,0.3-2.3,0.9-3.1
		C148,129.6,149.2,129.8,150.3,129.6z"/>
	<path fill="#808080"  d="M173.1,129.4c0.6,0,1.2,0.1,1.9,0.2c-0.1-0.4,0-0.8-0.2-1.1c-0.5-0.6-2.1-0.6-3.2,0.1c-1,0.6-1.3,1.5-0.9,2.5
		c0.2,0.5,0.9,0.8,1.4,1.2c0.3,0.3,0.5,0.7,0.8,1.1c-0.4,0.2-0.9,0.6-1.3,0.7c-0.5,0.1-1.1-0.1-1.7-0.2c-0.1,0.4-0.1,0.7-0.3,1.4
		c1.3-0.1,2.5,0,3.4-0.4c0.7-0.3,1.3-1.3,1.5-2.1c0.1-0.4-0.8-1.1-1.2-1.7c-0.2-0.2-0.5-0.2-0.6-0.4c-0.2-0.3-0.5-0.7-0.5-0.9
		C172.3,129.7,172.8,129.4,173.1,129.4z"/>
	<path fill="#808080"  d="M186.5,125.4c-0.1-0.1-0.3-0.2-0.4-0.3c-0.4,0.3-1.1,0.5-1.2,0.9c-0.7,3-1.2,5.9-1.9,9c1.4,0.6,1.7-0.1,1.9-1.1
		c0.3-1.7,0.7-3.3,1-5C186.1,127.8,186.3,126.6,186.5,125.4z"/>
	<path fill="#808080"  d="M224.4,128.4c-0.3,0.1-0.6,0.5-0.7,0.8c-0.3,1.1-0.5,2.3-0.7,3.5c-0.1,0.8-0.2,1.6-0.3,2.4c1.2,0.4,1.6-0.2,1.7-1.1
		c0.1-0.6,0.2-1.2,0.3-1.7c0.3-1.7,0.9-2.3,2.8-2.5c0-0.5,0-1,0-1.5c-0.7,0.2-1.4,0.3-2.3,0.5C225,128.7,224.7,128.4,224.4,128.4z"
		/>
	<path fill="#808080"   d="M73,128.9c-0.3-0.1-0.7-0.5-1-0.4c-0.3,0.1-0.6,0.5-0.7,0.9c-0.3,1.4-0.6,2.8-0.9,4.2c-0.1,0.5-0.1,1-0.2,1.6
		c1.4,0.1,1.5,0,1.7-1.1c0.1-0.7,0.2-1.3,0.3-2c0.4-1.6,1-2.1,2.8-2.3c0-0.5-0.1-1-0.1-1.5C74.4,128.5,73.7,128.7,73,128.9z"/>
	<path fill="#808080"  d="M137.1,128.8c-0.5,2.1-0.9,4.2-1.3,6.3c1.5,0.2,1.6,0.1,1.8-1c0.1-0.6,0.2-1.2,0.3-1.7c0.3-1.8,0.9-2.4,2.8-2.6
		c0-0.5,0-1,0-1.5c-0.7,0.2-1.5,0.4-2.3,0.6C138.1,128.3,137.2,128.1,137.1,128.8z"/>
	<path fill="#808080"   d="M142.4,128.9c-0.5,2-0.9,4.1-1.3,6.1c0.2,0.1,0.3,0.3,0.5,0.4c0.4-0.3,1.1-0.5,1.2-0.9c0.5-2,0.8-4,1.3-6.4
		C143.3,128.5,142.5,128.6,142.4,128.9z"/>
	<path fill="#808080"  d="M76.7,129.5c-0.1,0.5-0.3,1.1-0.4,1.6c-0.2,1.3-0.4,2.7-0.7,4c1,0.2,1.6,0.1,1.7-0.8c0.3-1.9,0.7-3.8,1.1-5.8
		C77,128.3,77,128.3,76.7,129.5z"/>
	<path fill="#808080"  d="M241,129.5c-0.3,1.9-0.7,3.7-1.1,5.6c1.1,0.3,1.7,0.1,1.8-0.8c0.3-1.9,0.7-3.7,1.1-5.7C241.8,128.3,241.2,128.3,241,129.5z
		"/>
	<path fill="#808080"  d="M264.5,131.7c-0.2,1.1-0.5,2.2-0.7,3.3c1.1,0.4,1.7,0.2,1.8-0.9c0.2-1.3,0.6-2.6,0.8-4c0.1-0.6,0.1-1.1,0.1-1.7
		c-0.6,0-1,0-1.4,0C264.9,129.6,264.7,130.7,264.5,131.7z"/>
	<path fill="#808080"  d="M192.5,130.9c-1.1-0.1-1.2,0.5-1.1,1.4c3.2,0.2,3.6,0.2,3.4-1.4C194,130.9,193.2,131,192.5,130.9z"/>
	<path fill="#808080"  d="M50.8,134.2c0,0.3,0.5,0.6,0.8,1c0.4-0.5,0.9-0.9,1.1-1.4c0.1-0.2-0.4-0.6-0.9-1.3C51.3,133.3,50.9,133.7,50.8,134.2z"/>
	<path fill="#808080"  d="M55.7,132.8c-0.3,0.5-0.8,0.9-0.9,1.4c-0.1,0.3,0.4,0.9,0.7,1c0.9,0.1,1.2-0.6,1.2-1.3c0-0.3-0.4-0.7-0.6-1
		C56,132.8,55.9,132.8,55.7,132.8z"/>
	<path fill="#808080"  d="M59.5,132.8c-0.3,0.5-0.7,1-0.8,1.5c-0.1,0.2,0.4,0.8,0.7,0.9c0.8,0.1,1.2-0.6,1.2-1.3c0-0.3-0.3-0.7-0.5-1
		C59.9,132.8,59.7,132.8,59.5,132.8z"/>
	<path fill="#808080"  d="M265.4,126.7c0,0.1,0.6,0.6,0.7,0.6c0.4-0.3,0.8-0.6,1.2-1c0,0-0.4-0.5-0.8-1C266,125.8,265.6,126.2,265.4,126.7z"/>
	<path fill="#808080"  d="M241.4,126.6c0.3,0.2,0.6,0.6,0.9,0.6c0.4-0.1,0.8-0.5,1.5-0.9c-0.7-0.4-1.1-0.8-1.3-0.7
		C242.1,125.9,241.8,126.3,241.4,126.6z"/>
	<path fill="#808080"  d="M142.7,126.6c0.3,0.2,0.6,0.7,0.9,0.6c0.4-0.1,0.8-0.5,1.5-1c-0.7-0.4-1.1-0.7-1.3-0.6
		C143.4,125.8,143.1,126.3,142.7,126.6z"/>
	<path fill="#808080"  d="M78.3,125.6c-0.4,0.3-0.8,0.6-1.2,1.1c0,0.1,0.4,0.5,0.9,1c0.5-0.6,0.8-0.9,1-1.4C79,126.2,78.4,125.6,78.3,125.6z"/>
	<path fill="#808080"  d="M286.1,128.1c0.8-0.1,1.2,0.4,1.2,0.5l0.2-0.1c0,0-0.5-0.7-1.4-0.6c-0.3,0-1.1,0.3-1.1,1.5l0,0c0,0,0,0.1,0,0.1
		c0,0,0,0.1,0,0.1l0,0c0.1,1.2,0.8,1.4,1.1,1.5c0.1,0,0.2,0,0.2,0c0.8,0,1.2-0.6,1.2-0.6l-0.2-0.1c0,0-0.4,0.6-1.2,0.5
		c-0.3,0-0.9-0.3-0.9-1.3C285.2,128.3,285.8,128.1,286.1,128.1z"/>
</g>
</svg>
